<svg width="24" height="24" viewBox="0 0 24 24" fill="none" xmlns="http://www.w3.org/2000/svg">
<path opacity="0.4" fill-rule="evenodd" clip-rule="evenodd" d="M12 21.75C19.199 21.75 21.75 19.198 21.75 12C21.75 4.802 19.199 2.25 12 2.25C4.802 2.25 2.25 4.802 2.25 12C2.25 19.198 4.802 21.75 12 21.75Z" fill="#0B46B4"/>
<path d="M13.4388 7.77906C13.2918 7.77906 13.1448 7.82206 13.0148 7.91106C11.5938 8.88806 9.20975 10.7181 9.20975 12.0011C9.20975 13.2841 11.5938 15.1131 13.0148 16.0891C13.3578 16.3231 13.8238 16.2371 14.0578 15.8951C14.2918 15.5541 14.2048 15.0871 13.8648 14.8521C12.2808 13.7641 10.8048 12.4171 10.7078 12.0311C10.8048 11.5851 12.2808 10.2371 13.8648 9.14706C14.2058 8.91206 14.2918 8.44506 14.0578 8.10406C13.9118 7.89206 13.6778 7.77906 13.4388 7.77906Z" fill="#0B46B4"/>
</svg>
